HIERARCHY
ROOT hip
{
	OFFSET 0.000000 0.000000 0.000000 
	CHANNELS 6 Xposition Yposition Zposition Xrotation Zrotation Yrotation
	JOINT abdomen
	{
		OFFSET 0.000000 3.402643 0.000000 
		CHANNELS 3 Xrotation Zrotation Yrotation
		JOINT chest
		{
			OFFSET 0.000000 8.438565 -0.680529 
			CHANNELS 3 Xrotation Zrotation Yrotation
			JOINT neck
			{
				OFFSET 0.000000 10.207942 -0.272212 
				CHANNELS 3 Xrotation Zrotation Yrotation
				JOINT head
				{
					OFFSET 0.000000 3.130431 0.000000 
					CHANNELS 3 Xrotation Zrotation Yrotation
					End Site
					{
						OFFSET 0.000000 3.130435 0.000000 
					}
				}
			}
			JOINT lCollar
			{
				OFFSET 3.470700 6.669187 -0.816635 
				CHANNELS 3 Yrotation Zrotation Xrotation
				JOINT lShldr
				{
					OFFSET 3.198488 0.000000 0.000000 
					CHANNELS 3 Zrotation Yrotation Xrotation
					JOINT lForeArm
					{
						OFFSET 10.139888 0.000000 0.000000 
						CHANNELS 3 Yrotation Zrotation Xrotation
						JOINT lHand
						{
							OFFSET 8.370511 0.000000 0.000000 
							CHANNELS 3 Zrotation Yrotation Xrotation
							End Site
							{
								OFFSET 4.083176 0.000000 0.000000 
							}
						}
					}
				}
			}
			JOINT rCollar
			{
				OFFSET -3.470700 6.669187 -0.816635 
				CHANNELS 3 Yrotation Zrotation Xrotation
				JOINT rShldr
				{
					OFFSET -3.198488 0.000000 0.000000 
					CHANNELS 3 Zrotation Yrotation Xrotation
					JOINT rForeArm
					{
						OFFSET -10.139888 0.000000 0.000000 
						CHANNELS 3 Yrotation Zrotation Xrotation
						JOINT rHand
						{
							OFFSET -8.370511 0.000000 0.000000 
							CHANNELS 3 Zrotation Yrotation Xrotation
							End Site
							{
								OFFSET -4.083176 0.000000 0.000000 
							}
						}
					}
				}
			}
		}
	}
	JOINT lThigh
	{
		OFFSET 5.308129 -1.633274 1.361059 
		CHANNELS 3 Xrotation Zrotation Yrotation
		JOINT lShin
		{
			OFFSET -2.041588 -20.007561 0.000000 
			CHANNELS 3 Xrotation Zrotation Yrotation
			JOINT lFoot
			{
				OFFSET 0.000000 -19.190928 -1.224953 
				CHANNELS 3 Xrotation Yrotation Zrotation
				End Site
				{
					OFFSET 0.000000 -2.449906 4.627600 
				}
			}
		}
	}
	JOINT rThigh
	{
		OFFSET -5.308129 -1.633274 1.361059 
		CHANNELS 3 Xrotation Zrotation Yrotation
		JOINT rShin
		{
			OFFSET 2.041588 -20.007561 0.000000 
			CHANNELS 3 Xrotation Zrotation Yrotation
			JOINT rFoot
			{
				OFFSET 0.000000 -19.190928 -1.224953 
				CHANNELS 3 Xrotation Yrotation Zrotation
				End Site
				{
					OFFSET 0.000000 -2.449906 4.627600 
				}
			}
		}
	}
}
MOTION
Frames: 18
Frame Time: 0.011111
0.088351 52.765038 -84.986633 0.431174 5.181246 -2.011153 35.186493 -6.989020 -5.280870 -37.529144 7.147632 -1.055121 -13.828971 -3.135061 -4.024508 24.777920 5.405396 -7.963072 4.570630 -11.838743 2.144267 -64.409569 -35.995899 29.773287 -48.079510 7.227450 7.382191 8.524705 12.647240 -41.419323 -5.057420 16.551065 2.193941 56.040657 18.763079 26.995310 53.626713 -8.448037 9.646941 -8.534408 -12.637552 44.281105 5.212769 -6.795221 -12.207273 22.244825 -5.728566 -3.824637 -24.061695 3.627156 -0.844049 -31.012228 -9.579358 4.890280 51.974358 3.576455 7.392538 -15.530536 -2.523764 2.273642 
0.090350 52.779369 -84.663567 0.666294 5.191467 -2.165739 35.093945 -6.924466 -5.537404 -37.943398 7.530471 -1.195610 -13.512981 -3.471443 -3.739755 24.849304 5.607354 -7.417147 4.570630 -11.838743 2.144267 -64.729164 -35.384399 29.622103 -48.631332 7.374546 7.606619 8.524705 12.647240 -41.370499 -5.057420 16.551065 2.193941 55.822571 18.402159 26.736141 52.911160 -8.320016 9.360116 -8.534408 -12.637552 43.812359 5.868061 -6.717906 -12.269301 21.340799 -5.752865 -3.708809 -24.103773 3.597032 -0.838927 -31.424358 -9.364607 5.682586 49.667206 3.803407 7.156340 -14.937242 -3.206187 2.180186 
0.093685 52.789040 -84.298828 0.715451 5.329897 -2.149837 35.049080 -6.983512 -5.720197 -37.737152 7.552701 -1.222746 -13.779104 -3.639830 -3.642679 25.068970 5.890677 -7.231385 4.570630 -11.838743 2.144267 -64.757439 -35.500458 29.823761 -48.953136 7.450090 7.732793 8.524705 12.647240 -41.390026 -5.057420 16.551065 2.193941 55.894321 18.261753 26.365480 52.511097 -8.239911 9.184276 -8.534408 -12.637552 43.646339 7.033435 -6.704483 -12.584285 20.021502 -5.801273 -3.529503 -23.951403 3.738400 -0.809962 -31.562902 -9.353822 6.479518 47.406197 4.016111 6.920730 -14.354288 -3.848460 2.060934 
0.092685 52.813049 -83.915421 0.784257 5.357096 -1.801318 35.018482 -6.873782 -5.857496 -37.386627 7.338865 -1.228702 -14.186564 -3.501404 -3.682196 24.923914 6.038373 -7.266133 4.570630 -11.838743 2.144267 -64.656494 -35.925758 29.879513 -49.327770 7.538859 7.879230 8.524705 12.647240 -41.438854 -5.057420 16.551065 2.193941 56.290562 18.252102 25.458319 52.101341 -8.159145 9.018231 -8.534408 -12.637552 43.070168 8.139297 -6.559967 -12.972017 18.794041 -5.821437 -3.353273 -23.728079 3.805571 -0.819957 -31.476254 -9.373683 7.134825 45.073711 4.221430 6.659358 -14.040708 -4.476191 1.946988 
0.090684 52.849388 -83.543365 0.882697 5.530828 -1.457492 34.896179 -6.851373 -6.351178 -37.501987 7.594445 -1.389856 -13.652143 -3.632099 -3.652506 24.445393 6.078645 -7.218920 4.570630 -11.838743 2.144267 -64.785736 -35.616524 30.025440 -49.901257 7.674523 8.112666 8.524705 12.647240 -41.224010 -5.057420 16.551065 2.193941 56.184399 17.758608 24.976952 51.629410 -8.063793 8.821921 -8.534408 -12.637552 42.640480 9.189844 -6.513886 -13.373937 17.591051 -5.867540 -3.202542 -23.532940 3.799111 -0.864860 -31.529745 -9.559958 7.945041 42.746868 4.426601 6.392064 -13.567929 -5.207531 1.843543 
0.072348 52.850716 -83.223625 1.166801 5.507821 -1.870335 34.606224 -7.022272 -6.233718 -37.695244 7.806934 -1.382386 -13.147052 -3.772780 -3.610881 24.094845 6.189737 -7.148469 4.570630 -11.838743 2.144267 -64.861664 -35.407570 30.339451 -50.381924 7.784525 8.301399 8.524705 12.647240 -40.989632 -5.057420 16.551065 2.193941 56.097176 17.244627 24.496698 51.148041 -7.965905 8.627747 -8.534408 -12.637552 42.230328 9.839662 -6.375488 -13.314871 16.507910 -5.899060 -3.040454 -23.543215 3.961259 -0.795028 -31.955212 -9.198511 9.326185 40.396652 4.618768 6.111361 -13.105308 -5.959939 1.769102 
0.049676 52.838379 -82.893898 1.441134 5.460800 -1.952928 34.536949 -7.123496 -6.057141 -37.752464 7.742002 -1.316198 -13.349401 -3.613579 -3.675872 23.995972 6.173694 -7.243202 4.570630 -11.838743 2.144267 -64.714104 -35.600292 31.062277 -50.841290 7.882203 8.482854 8.524705 12.647240 -40.403702 -5.057420 16.551065 2.193941 56.441380 17.012554 23.493979 50.729343 -7.875021 8.456436 -8.534408 -12.637552 41.683449 10.583909 -6.171273 -13.395078 15.331409 -5.930040 -2.878741 -23.377731 4.104847 -0.754985 -32.125839 -9.003755 10.576211 38.091923 4.784766 5.849409 -13.146157 -6.632321 1.636283 
0.032673 52.852386 -82.529167 1.558481 5.368749 -2.002994 34.515667 -6.995201 -6.073807 -37.762997 7.763999 -1.352472 -13.486259 -3.633727 -3.672559 24.044451 6.136784 -7.261499 4.570630 -11.838743 2.144267 -64.670769 -35.700127 31.388517 -51.261040 7.978393 8.662103 8.524705 12.647240 -39.876350 -5.057420 16.551065 2.193941 56.563896 16.713140 22.833172 50.279640 -7.774542 8.277047 -8.534408 -12.637552 40.999855 11.500374 -5.917177 -13.635238 14.231639 -5.947402 -2.723237 -23.284521 4.433552 -0.639864 -32.022320 -8.740138 12.064344 35.852428 4.940769 5.566184 -13.625113 -7.461580 1.393879 
0.026005 52.887726 -82.122749 1.500501 5.443194 -1.195655 34.574211 -6.590307 -6.683660 -37.702198 7.701978 -1.540564 -13.224425 -3.754476 -3.720373 23.756651 6.371411 -7.345730 4.570630 -11.838743 2.144267 -64.647713 -35.515347 31.630718 -51.700455 8.066124 8.836992 8.524705 12.647240 -39.827530 -5.057420 16.551065 2.193941 56.661915 16.326916 22.071093 49.757324 -7.652258 8.061449 -8.534408 -12.637552 40.247906 12.945182 -5.643903 -14.398415 12.666693 -5.965578 -2.495978 -22.811710 4.511369 -0.712692 -31.655529 -8.993731 13.263085 33.834599 5.081969 5.332262 -14.687886 -8.564533 0.963813 
-0.037007 52.857048 -81.776016 1.931615 5.694000 -2.250867 34.167080 -7.628340 -6.019990 -37.526073 7.757517 -1.238223 -13.368477 -3.638597 -3.859416 23.467503 6.558261 -7.564122 4.570630 -11.838743 2.144267 -64.552811 -35.598003 31.994284 -52.131496 8.158104 9.019843 8.524705 12.647240 -40.188858 -5.057420 16.551065 2.193941 57.108185 16.158028 20.711424 49.350258 -7.553690 7.895984 -8.534408 -12.637552 39.515484 13.964500 -5.771438 -14.042477 10.873950 -6.005819 -2.248942 -22.698725 5.046749 -0.538640 -32.572609 -8.633073 15.332726 31.978905 5.222628 5.118988 -14.755741 -9.153439 0.830279 
-0.039341 52.867054 -81.364273 1.923934 5.993837 -1.292991 34.428726 -7.594852 -6.532997 -37.331085 7.470975 -1.309268 -13.999364 -3.480210 -3.980312 23.844812 6.647924 -7.746548 4.570630 -11.838743 2.144267 -64.449745 -35.994038 32.421146 -52.372883 8.205839 9.122229 8.524705 12.647240 -40.179089 -5.057420 16.551065 2.193941 57.601219 16.123528 19.495485 48.955067 -7.462916 7.748665 -8.534408 -12.637552 38.870953 15.747808 -5.575802 -15.016108 8.693378 -6.013655 -1.954868 -21.991228 5.081555 -0.652629 -32.455681 -9.257779 16.517141 30.336409 5.297022 4.885388 -16.296078 -9.819049 0.375816 
-0.071680 52.844723 -81.027870 2.257303 6.050403 -1.764565 34.240486 -8.006940 -6.162736 -37.450230 7.510955 -1.173874 -14.144825 -3.483063 -4.102000 23.961777 6.727522 -7.993612 4.570630 -11.838743 2.144267 -64.467766 -35.963863 32.831989 -52.645763 8.256383 9.227659 8.524705 12.647240 -39.847057 -5.057420 16.551065 2.193941 57.853302 15.846777 18.400829 48.413509 -7.324092 7.530797 -8.534408 -12.637552 38.197124 17.197586 -5.361669 -14.513440 6.181272 -6.013514 -1.590553 -21.190029 5.135083 -0.770146 -33.180176 -9.082341 17.890991 28.813330 5.398341 4.696526 -16.765436 -10.107608 0.204156 
-0.117355 52.853390 -80.660133 2.502464 6.054050 -1.875829 34.055912 -8.138712 -6.149230 -37.545464 7.748448 -1.188987 -13.922006 -3.609565 -4.164124 23.515514 6.775595 -8.144060 4.570630 -11.838743 2.144267 -64.602562 -35.732632 33.114628 -52.855953 8.297051 9.321895 8.524705 12.647240 -39.768932 -5.057420 16.551065 2.193941 57.889099 15.414683 17.760704 47.812515 -7.176496 7.292943 -8.534408 -12.637552 38.802593 20.737680 -4.414064 -14.599732 -0.106402 -5.950629 -0.683670 -18.786730 5.703605 -0.996862 -33.651974 -8.867084 19.506990 27.522427 5.453106 4.525870 -17.589811 -10.744579 -0.128417 
-0.145361 52.864056 -80.252396 2.649962 6.038744 -1.636453 33.943733 -7.996467 -6.335648 -37.619160 7.908148 -1.284962 -13.807905 -3.767594 -4.072062 23.352730 6.899938 -8.007575 4.570630 -11.838743 2.144267 -64.756065 -35.480961 33.212433 -53.035091 8.331798 9.394534 8.524705 12.647240 -39.729870 -5.057420 16.551065 2.193941 57.834621 14.957828 17.363640 47.273197 -7.031971 7.078686 -8.534408 -12.637552 39.261578 21.064299 -4.326240 -14.539478 -0.105398 -5.950827 -0.693408 -18.876024 5.342068 -1.091724 -33.889149 -8.741063 21.224218 26.427206 5.510609 4.372628 -19.018406 -11.430710 -0.668495 
-0.179035 52.852051 -79.823318 2.651156 6.104857 -0.949086 33.971642 -7.691428 -6.946373 -37.801964 8.077622 -1.517940 -13.637487 -4.024802 -3.869554 23.492826 7.109070 -7.602070 4.570630 -11.838743 2.144267 -64.982330 -35.118271 32.848396 -53.193718 8.365162 9.467458 8.524705 12.647240 -39.847057 -5.057420 16.551065 2.193941 57.659248 14.272383 17.220718 46.962006 -6.944899 6.960323 -8.534408 -12.637552 39.281113 21.570337 -4.170139 -14.947347 -0.105334 -5.950645 -0.683655 -18.955164 4.999893 -1.186714 -33.841137 -8.916828 22.717535 25.499786 5.559463 4.260853 -20.924059 -12.028298 -1.350909 
-0.223710 52.845718 -79.388885 2.583292 6.172087 -0.083268 34.078655 -7.407012 -7.475188 -37.700249 7.973401 -1.670616 -13.627687 -4.028761 -3.889360 23.336784 7.280682 -7.623909 4.570630 -11.838743 2.144267 -64.964310 -35.148460 32.847713 -53.214241 8.365854 9.468935 8.524705 12.647240 -40.013069 -5.057420 16.551065 2.193941 57.903797 13.859082 16.251011 46.528141 -6.828650 6.795764 -8.534408 -12.637552 38.675644 22.073475 -3.926027 -15.519284 -0.106256 -5.950446 -0.673916 -18.988449 4.543222 -1.318508 -33.591225 -9.121216 24.082724 24.751873 5.599487 4.172290 -21.939726 -13.234017 -2.003439 
-0.291056 52.807709 -79.037827 2.867752 6.177172 -0.737023 33.954578 -7.923233 -6.820519 -37.567207 7.811162 -1.405384 -14.004422 -3.880333 -4.091466 23.335093 7.414649 -7.971664 4.570630 -11.838743 2.144267 -64.746033 -35.481430 33.528690 -53.234585 8.367156 9.480158 8.524705 12.647240 -39.632217 -5.057420 16.551065 2.193941 58.353756 13.777526 15.098859 46.084095 -6.703753 6.625051 -8.534408 -12.637552 38.138535 22.188688 -4.053059 -14.588282 -0.105363 -5.950829 -0.693407 -19.154356 4.055717 -1.441510 -34.332649 -8.701926 25.077572 24.147453 5.619247 4.082891 -22.688669 -12.893839 -2.140185 
-0.361403 52.792709 -78.654419 3.123102 6.167453 -0.651716 33.824463 -8.012555 -6.819828 -37.499645 7.862601 -1.396933 -14.218937 -3.916592 -4.159100 23.515049 7.549790 -8.111891 4.570630 -11.838743 2.144267 -64.706566 -35.493046 33.712860 -53.340466 8.388595 9.522000 8.524705 12.647240 -39.231823 -5.057420 16.551065 2.193941 58.336365 13.455704 15.064939 45.620235 -6.571377 6.445901 -8.534408 -12.637552 38.538918 22.391924 -3.935562 -14.345856 -0.106407 -5.950630 -0.683670 -19.230270 3.722083 -1.545363 -34.741615 -8.555766 25.741253 23.670532 5.646980 4.015940 -22.722479 -13.144574 -2.223674 
